<?xml version="1.0" standalone="no"?>
<!DOCTYPE svg PUBLIC "-//W3C//DTD SVG 20010904//EN"
 "http://www.w3.org/TR/2001/REC-SVG-20010904/DTD/svg10.dtd">
<svg version="1.0" xmlns="http://www.w3.org/2000/svg"
 width="1024.000000pt" height="1024.000000pt" viewBox="0 0 1024.000000 1024.000000"
 preserveAspectRatio="xMidYMid meet">
<metadata>
Created by potrace 1.14, written by Peter Selinger 2001-2017
</metadata>
<g transform="translate(0.000000,1024.000000) scale(0.100000,-0.100000)"
fill="#000000" stroke="none">
<path d="M1185 10225 c-272 -34 -511 -142 -722 -327 -223 -195 -377 -463 -440
-768 -16 -80 -17 -315 -21 -3935 -2 -2843 0 -3880 8 -3965 63 -631 537 -1125
1165 -1215 95 -14 415 -21 415 -10 0 4 -7 20 -16 38 -19 36 -75 199 -71 204 2
1 16 -30 32 -70 63 -164 71 -177 104 -177 36 0 32 -26 61 376 35 492 105 1140
155 1439 135 801 427 1238 899 1342 95 22 376 22 506 1 110 -17 306 -10 403
15 l57 15 50 -81 c28 -45 50 -85 50 -89 0 -4 -10 -3 -22 2 -34 15 -202 50
-192 40 5 -5 53 -20 107 -33 53 -14 108 -32 122 -41 27 -18 188 -338 353 -701
273 -604 392 -1093 379 -1560 -6 -213 -19 -279 -82 -413 -25 -53 -36 -86 -25
-72 29 37 89 185 106 260 21 96 28 306 15 462 -36 427 -174 889 -426 1428
-136 291 -143 305 -232 485 -46 94 -75 159 -64 145 11 -14 21 -28 21 -31 0 -4
18 -3 39 1 21 4 51 6 65 4 18 -2 24 1 19 9 -4 7 6 4 21 -7 29 -19 29 -14 -6
37 -38 54 -10 26 59 -60 38 -49 131 -173 205 -278 393 -554 592 -818 867
-1145 135 -161 570 -596 731 -731 142 -118 362 -285 412 -312 32 -17 32 -17 8
0 -489 353 -848 693 -1270 1203 -125 151 -425 552 -618 825 -154 218 -215 302
-362 500 -119 161 -175 244 -184 271 -4 13 2 40 14 68 48 112 122 324 163 467
116 399 207 1014 207 1397 l0 152 28 -6 c34 -8 49 -24 144 -165 42 -63 126
-175 185 -249 129 -160 447 -484 626 -636 113 -95 128 -112 124 -134 -3 -14
-10 -52 -17 -85 -27 -130 9 -445 77 -679 42 -148 69 -200 133 -266 63 -65 125
-93 350 -160 173 -51 262 -92 243 -111 -6 -6 -66 -21 -134 -35 -68 -13 -139
-29 -158 -36 -38 -12 -131 -93 -131 -114 0 -39 54 -19 90 33 16 23 44 45 78
61 66 30 280 74 302 62 33 -18 951 -970 935 -970 -14 0 -53 26 -110 73 -65 55
-172 127 -188 127 -21 0 20 -33 73 -60 31 -16 62 -35 69 -44 11 -13 8 -14 -24
-5 -20 6 -39 8 -42 6 -4 -5 100 -47 117 -47 5 0 12 -5 15 -10 4 -7 -8 -8 -37
-4 -24 4 -40 4 -37 0 14 -15 188 -58 369 -91 234 -43 309 -62 466 -116 208
-71 394 -169 394 -207 0 -87 -88 -296 -190 -451 -162 -247 -357 -442 -610
-609 -172 -114 -438 -239 -454 -213 -3 4 -8 32 -11 62 -46 385 -201 725 -473
1037 l-54 63 6 52 c4 29 16 86 27 129 21 85 23 102 10 94 -11 -7 -46 -124 -56
-183 -4 -24 -10 -45 -14 -47 -3 -2 -55 38 -115 90 -119 102 -280 218 -297 212
-6 -2 16 -21 50 -42 203 -125 439 -360 593 -590 149 -223 253 -476 282 -687
11 -76 9 -200 -2 -211 -24 -24 -273 91 -489 224 -18 11 -33 17 -33 15 0 -17
301 -185 435 -243 l85 -36 52 17 c74 23 350 172 473 255 252 169 475 395 622
630 88 141 162 314 176 412 5 36 3 40 -49 84 -30 26 -54 50 -54 54 0 4 16 -8
36 -26 19 -19 46 -36 60 -39 13 -3 35 -7 49 -10 18 -4 27 -14 31 -35 5 -24 17
-34 70 -59 192 -90 419 -351 501 -575 43 -119 54 -176 60 -304 9 -202 -26
-368 -108 -519 l-40 -73 98 0 c678 2 1236 461 1360 1121 17 89 18 300 18 4004
0 3737 -1 3914 -18 4000 -122 605 -597 1044 -1196 1104 -125 13 -2559 14
-2521 1 14 -5 77 -23 140 -40 295 -82 689 -272 949 -458 478 -340 893 -833
1108 -1315 165 -369 242 -731 230 -1082 -5 -145 -30 -347 -56 -466 -45 -202
-142 -436 -246 -595 -199 -305 -508 -573 -778 -674 -32 -12 -61 -19 -65 -16
-3 4 4 19 16 34 155 191 275 404 307 547 6 26 3 23 -24 -19 -133 -203 -372
-403 -566 -471 -53 -19 -63 -27 -82 -66 -54 -107 -88 -328 -63 -418 19 -70 47
-91 123 -91 106 0 197 57 295 185 l23 30 -18 -34 c-55 -104 -193 -194 -294
-194 -105 1 -148 48 -157 175 -6 82 8 158 55 306 32 101 38 112 60 112 74 0
235 86 352 190 181 160 277 287 337 450 8 23 13 28 13 15 1 -25 -43 -192 -69
-262 -50 -133 -161 -321 -243 -410 -22 -24 -37 -46 -34 -50 10 -10 110 30 191
77 298 171 584 488 724 805 259 584 240 1279 -51 1923 -218 482 -618 963
-1071 1286 -333 238 -735 423 -1108 511 l-108 25 -2552 -1 c-1973 -1 -2576 -4
-2653 -14z m1897 -1117 c-66 -128 -171 -325 -234 -438 -323 -578 -457 -862
-583 -1235 -94 -278 -144 -549 -131 -709 16 -193 46 -297 213 -746 96 -256
156 -464 167 -575 4 -46 1 -38 -13 35 -31 161 -69 286 -143 479 -97 253 -193
539 -213 636 -51 242 -19 503 111 913 102 318 259 658 519 1117 138 243 152
268 199 355 22 41 57 107 78 145 21 39 61 114 90 167 29 54 54 95 56 93 2 -2
-50 -109 -116 -237z m3369 -1135 c26 -410 -49 -791 -192 -981 -23 -29 -38 -56
-35 -59 8 -8 104 60 192 134 83 71 198 201 292 331 117 161 256 475 292 660 7
34 15 62 17 62 3 0 33 -17 67 -37 274 -164 489 -414 540 -628 30 -125 33 -122
-45 -40 -92 97 -173 158 -274 206 -130 63 -277 71 -360 19 -60 -37 -125 -125
-77 -104 58 25 157 43 242 43 186 1 313 -51 447 -183 96 -95 95 -90 59 -241
-14 -55 -36 -163 -51 -240 -14 -77 -28 -147 -30 -155 -6 -20 -124 -99 -153
-102 -17 -2 -28 6 -45 36 -19 33 -20 40 -7 44 23 8 136 120 128 127 -4 4 -35
-16 -69 -43 -76 -62 -95 -68 -115 -37 -23 35 -75 49 -155 41 -214 -22 -390
-118 -455 -252 -24 -49 -26 -63 -21 -124 10 -116 80 -227 155 -247 36 -9 138
37 183 82 72 72 119 199 119 323 l0 73 29 -15 c44 -23 108 -102 133 -165 61
-152 -17 -368 -140 -391 -46 -8 -124 2 -130 18 -1 5 -11 8 -21 5 -10 -2 -35 3
-56 11 -21 9 -40 15 -42 12 -7 -7 96 -46 161 -61 36 -9 77 -13 91 -9 18 4 27
2 31 -10 9 -24 24 -19 21 7 -2 19 3 22 35 22 43 0 54 8 33 25 -13 11 -11 17
16 51 27 34 33 37 56 28 33 -12 40 -5 23 26 -11 21 -11 30 5 65 17 37 21 40
57 40 35 0 38 -2 33 -22 -11 -52 -25 -249 -25 -352 0 -288 -61 -496 -205 -696
-82 -113 -262 -291 -465 -461 -96 -81 -260 -226 -363 -324 -200 -189 -324
-297 -370 -321 -67 -35 -232 -22 -392 32 -164 55 -391 188 -568 333 -165 134
-418 416 -537 597 -60 92 -134 244 -123 253 4 4 32 13 61 19 232 51 383 256
421 575 10 79 19 209 15 204 -1 -1 -16 -35 -33 -76 -72 -169 -166 -239 -284
-210 -65 15 -136 79 -168 152 -22 48 -24 65 -24 222 0 160 2 178 33 299 46
177 95 313 155 431 28 55 51 101 52 103 1 1 34 -11 73 -27 207 -86 371 -77
631 34 223 96 400 213 604 399 l118 108 47 -17 c26 -10 64 -28 85 -41 30 -20
38 -22 43 -10 7 19 -28 85 -65 120 l-30 29 52 57 c98 106 184 254 232 400 18
54 18 55 27 25 4 -16 13 -107 19 -202z m449 -1339 c0 -65 -56 -178 -114 -232
-98 -90 -154 -31 -111 114 18 60 38 81 128 128 91 48 97 47 97 -10z m599 18
c-11 -33 -34 -48 -85 -58 l-39 -7 65 46 c36 25 66 46 67 46 1 1 -2 -11 -8 -27z
m-24 -101 c-5 -23 -12 -31 -28 -31 -25 0 -62 20 -38 20 8 0 11 3 7 7 -4 4 8
15 26 24 18 10 35 16 36 14 2 -2 1 -17 -3 -34z m-578 -136 c-13 -38 -37 -59
-37 -33 0 16 39 82 46 76 2 -3 -2 -22 -9 -43z m553 -2 c0 -42 -13 -55 -43 -47
-32 7 -31 7 -12 44 21 40 55 41 55 3z m717 -45 c-3 -8 -6 -5 -6 6 -1 11 2 17
5 13 3 -3 4 -12 1 -19z m-307 -1084 c-19 -152 -56 -279 -120 -411 -49 -99 -71
-133 -123 -185 -127 -125 -239 -166 -376 -137 -39 9 -71 14 -71 11 0 -7 97
-144 242 -342 356 -488 490 -740 591 -1110 113 -413 111 -799 -7 -1091 -28
-69 -35 -79 -44 -64 -8 15 -4 30 18 69 131 235 131 700 0 1151 -91 313 -271
636 -601 1080 -139 187 -250 347 -244 353 2 2 30 -6 62 -19 87 -34 199 -32
276 3 181 84 330 338 376 638 6 41 14 88 16 104 4 22 2 27 -10 22 -13 -5 -14
-2 -4 15 22 42 30 5 19 -87z m-5333 -146 c-2 -35 -3 -7 -3 62 0 69 1 97 3 63
2 -35 2 -91 0 -125z m-11 -125 c-11 -93 -35 -172 -80 -268 -57 -119 -115 -198
-281 -385 -180 -202 -255 -303 -316 -425 -28 -55 -47 -89 -43 -75 29 102 140
265 335 490 191 221 228 272 289 395 47 96 90 238 90 297 0 15 3 28 6 28 4 0
4 -26 0 -57z m6113 -88 c154 -84 214 -271 137 -428 -52 -108 -146 -168 -271
-175 -108 -5 -179 21 -251 92 -70 70 -97 143 -92 246 4 91 31 151 94 215 65
64 127 86 239 82 77 -2 98 -7 144 -32z m-6879 -1227 c-11 -41 -24 -106 -29
-144 -5 -41 -9 -55 -10 -34 -1 48 16 155 35 213 24 72 26 52 4 -35z m-30 -286
c0 -5 -6 -17 -14 -27 -13 -18 -14 -18 -9 8 5 24 23 39 23 19z m5287 -402 c102
-26 241 -95 328 -165 136 -108 286 -301 416 -535 69 -125 329 -652 329 -667 0
-6 -48 10 -110 37 -128 57 -262 101 -410 136 -58 14 -112 27 -122 30 -9 3 -51
46 -95 97 -189 222 -420 466 -578 609 -62 56 -38 30 62 -68 275 -270 569 -602
550 -620 -8 -8 -174 24 -204 40 -40 20 -82 62 -468 466 -380 397 -464 482
-549 559 l-59 52 40 -5 c93 -11 170 -55 388 -223 l70 -54 -70 66 c-38 36 -107
92 -152 123 -45 31 -82 59 -82 62 -1 8 241 61 344 76 113 17 269 10 372 -16z
m-950 -6 c-3 -3 -12 -4 -19 -1 -8 3 -5 6 6 6 11 1 17 -2 13 -5z m2032 -1319
c0 -5 -6 1 -14 15 -8 14 -14 30 -14 35 0 6 6 -1 14 -15 8 -14 14 -29 14 -35z
m-6610 -1357 c11 -34 19 -63 17 -65 -2 -3 -12 20 -21 49 -10 29 -20 59 -23 66
-2 6 -2 12 1 12 3 0 15 -28 26 -62z"/>
<path d="M5829 7215 c51 -47 100 -130 122 -203 8 -29 15 -38 21 -30 13 21 9
77 -8 110 -31 59 -146 168 -178 168 -3 0 17 -20 43 -45z"/>
<path d="M7239 7055 c-168 -32 -361 -109 -474 -190 -68 -48 -156 -147 -194
-217 -23 -42 -22 -41 33 19 83 91 317 263 411 302 115 48 218 71 316 72 99 0
146 -15 197 -63 17 -18 32 -28 32 -22 0 16 -55 71 -89 88 -44 23 -143 28 -232
11z"/>
<path d="M5525 6944 c-140 -15 -358 -68 -578 -140 -159 -52 -171 -51 -258 18
-28 22 -53 37 -57 34 -3 -4 25 -36 62 -73 63 -61 67 -67 50 -80 -27 -19 -62
-16 -123 12 -30 14 -56 24 -58 21 -5 -5 48 -45 95 -72 17 -10 32 -22 32 -26 0
-15 -46 -38 -78 -38 -30 0 -33 -2 -22 -15 8 -10 30 -15 62 -15 43 0 53 -4 79
-32 31 -34 37 -58 17 -58 -7 -1 0 -8 17 -17 16 -9 35 -22 43 -29 7 -8 17 -14
22 -14 5 0 29 -16 55 -36 26 -19 65 -45 87 -56 23 -12 43 -29 45 -39 4 -15 8
-16 23 -7 15 10 39 5 119 -22 99 -33 101 -34 84 -53 -18 -20 -18 -20 12 -1 25
16 47 19 160 18 l130 -2 -125 7 c-162 10 -231 25 -308 68 -35 19 -69 32 -76
30 -7 -3 -30 3 -52 12 -96 44 -157 130 -158 225 -1 59 0 60 39 88 22 15 54 31
71 34 l31 6 6 -66 c9 -94 76 -194 159 -237 47 -24 171 -26 249 -3 100 29 193
105 239 193 24 48 50 152 50 204 0 44 4 44 88 18 79 -24 155 -18 176 14 17 25
12 32 -45 68 -75 46 -240 74 -364 61z m-105 -124 c0 -56 -86 -176 -165 -230
-65 -45 -103 -44 -151 4 -30 30 -34 40 -34 84 0 63 18 85 88 107 55 18 215 53
245 54 11 1 17 -6 17 -19z m-100 -355 c0 -20 -36 -55 -56 -55 -24 0 -13 43 16
57 33 17 40 16 40 -2z"/>
<path d="M6480 6208 c0 -34 51 -136 97 -193 22 -27 44 -58 50 -69 18 -32 -5
-95 -71 -201 -111 -174 -157 -289 -70 -173 22 29 71 93 108 143 74 97 105 155
106 197 0 20 -13 38 -54 73 -62 53 -106 116 -132 193 -20 55 -34 67 -34 30z"/>
<path d="M6355 5363 c-128 -15 -204 -29 -346 -65 -160 -41 -168 -42 -339 -42
l-175 -1 -7 -40 c-14 -80 -9 -220 12 -299 26 -102 92 -227 154 -291 46 -47
147 -115 170 -115 6 0 -17 16 -50 35 -159 94 -274 304 -274 501 0 82 15 110
75 138 35 17 39 17 138 -13 56 -17 134 -38 172 -47 68 -17 73 -20 167 -114 53
-53 102 -107 108 -121 6 -13 24 -46 40 -74 32 -54 33 -90 4 -148 -23 -44 -84
-107 -134 -138 -52 -33 -47 -38 8 -10 42 21 122 103 145 147 8 16 38 94 67
174 59 162 90 214 153 260 66 47 167 191 167 237 0 17 -9 21 -52 27 -54 6
-149 6 -203 -1z m213 -45 c4 -35 -38 -117 -87 -169 -37 -38 -43 -41 -77 -34
-20 3 -52 15 -71 25 -32 17 -39 17 -75 4 -98 -34 -431 -3 -431 41 0 14 88 74
132 90 37 13 259 61 316 68 17 3 89 4 160 3 l130 -1 3 -27z"/>
<path d="M6600 2697 c0 -2 15 -16 33 -33 l32 -29 -29 33 c-28 30 -36 37 -36
29z"/>
<path d="M4888 3093 c50 -57 94 -100 162 -158 19 -16 -19 26 -85 93 -66 67
-121 122 -123 122 -2 0 19 -26 46 -57z"/>
<path d="M4420 2904 c155 -35 315 -54 454 -54 149 0 187 -10 311 -84 102 -61
145 -81 145 -66 0 16 -174 116 -242 139 -56 19 -103 24 -265 31 -146 6 -232
15 -326 34 -161 32 -219 33 -77 0z"/>
<path d="M3508 1090 c-3 -8 -11 -48 -18 -88 -7 -41 -48 -207 -91 -370 -44
-164 -93 -362 -109 -442 -17 -80 -32 -155 -35 -167 -4 -18 -1 -23 15 -23 17 0
20 7 20 46 0 75 62 350 132 589 21 71 56 149 88 195 33 48 32 67 -1 31 -29
-32 -32 -33 -26 -10 18 75 38 203 35 227 -3 18 -6 22 -10 12z"/>
<path d="M4012 703 c-6 -21 -19 -76 -29 -123 -37 -173 -15 -580 31 -580 9 0 6
25 -12 93 -22 85 -23 106 -19 272 4 132 11 205 26 274 21 96 23 132 3 64z"/>
<path d="M4415 184 c-9 -15 -12 -23 -6 -20 11 7 35 46 28 46 -3 0 -12 -12 -22
-26z"/>
<path d="M4333 75 c-35 -41 -59 -75 -53 -75 5 0 30 28 56 63 26 34 52 68 57
75 5 6 8 12 6 12 -2 0 -32 -34 -66 -75z"/>
<path d="M7035 50 c-16 -4 -50 -8 -75 -9 -43 -1 -70 -14 -70 -33 0 -4 26 -8
58 -8 41 1 73 9 117 30 52 25 56 28 30 28 -16 0 -43 -4 -60 -8z"/>
</g>
</svg>
