<?xml version="1.0" encoding="UTF-8"?>
<!DOCTYPE svg PUBLIC "-//W3C//DTD SVG 1.1//EN" "http://www.w3.org/Graphics/SVG/1.1/DTD/svg11.dtd">
<svg xmlns="http://www.w3.org/2000/svg" version="1.1" width="512px" height="512px" style="shape-rendering:geometricPrecision; text-rendering:geometricPrecision; image-rendering:optimizeQuality; fill-rule:evenodd; clip-rule:evenodd" xmlns:xlink="http://www.w3.org/1999/xlink">
<g><path style="opacity:1" fill="#ea86bf" d="M 256.5,64.5 C 260.436,62.2343 263.769,59.2343 266.5,55.5C 268.749,54.9202 270.415,53.5869 271.5,51.5C 271.5,50.8333 271.833,50.5 272.5,50.5C 274.027,50.573 275.027,49.9063 275.5,48.5C 285.403,40.711 296.403,34.711 308.5,30.5C 311.716,30.6545 314.383,29.6545 316.5,27.5C 318.042,26.6993 319.708,26.366 321.5,26.5C 324.152,26.5905 326.485,25.9238 328.5,24.5C 381.793,13.4015 428.126,26.4015 467.5,63.5C 467.738,65.4044 468.738,66.7377 470.5,67.5C 474.544,70.5425 477.877,74.2092 480.5,78.5C 480.427,80.0269 481.094,81.0269 482.5,81.5C 482.427,83.0269 483.094,84.0269 484.5,84.5C 486.326,86.1475 487.66,88.1475 488.5,90.5C 488.427,92.0269 489.094,93.0269 490.5,93.5C 497.037,102.914 501.704,113.247 504.5,124.5C 504.41,127.152 505.076,129.485 506.5,131.5C 508.702,138.384 510.369,145.384 511.5,152.5C 511.5,164.5 511.5,176.5 511.5,188.5C 506.004,226.813 492.504,262.146 471,294.5C 440.538,338.64 404.705,378.14 363.5,413C 330.081,441.204 294.747,466.704 257.5,489.5C 255.784,489.371 254.117,489.038 252.5,488.5C 250.566,487.89 248.899,486.89 247.5,485.5C 247.027,484.094 246.027,483.427 244.5,483.5C 244.027,482.094 243.027,481.427 241.5,481.5C 239.566,480.89 237.899,479.89 236.5,478.5C 236.027,477.094 235.027,476.427 233.5,476.5C 233.027,475.094 232.027,474.427 230.5,474.5C 230.027,473.094 229.027,472.427 227.5,472.5C 227.027,471.094 226.027,470.427 224.5,470.5C 220.808,468.656 217.475,466.323 214.5,463.5C 214.027,462.094 213.027,461.427 211.5,461.5C 207.293,459.565 203.627,456.898 200.5,453.5C 200.027,452.094 199.027,451.427 197.5,451.5C 196.738,449.738 195.404,448.738 193.5,448.5C 192.738,446.738 191.404,445.738 189.5,445.5C 188.738,443.738 187.404,442.738 185.5,442.5C 185.027,441.094 184.027,440.427 182.5,440.5C 180.091,439.299 178.091,437.633 176.5,435.5C 176.027,434.094 175.027,433.427 173.5,433.5C 172.5,433.167 171.833,432.5 171.5,431.5C 171.027,430.094 170.027,429.427 168.5,429.5C 167.5,429.167 166.833,428.5 166.5,427.5C 166.027,426.094 165.027,425.427 163.5,425.5C 162.5,425.167 161.833,424.5 161.5,423.5C 161.027,422.094 160.027,421.427 158.5,421.5C 157.167,420.833 156.167,419.833 155.5,418.5C 155.027,417.094 154.027,416.427 152.5,416.5C 145.843,411.175 139.51,405.509 133.5,399.5C 133.027,398.094 132.027,397.427 130.5,397.5C 127.167,394.833 124.167,391.833 121.5,388.5C 120.738,386.738 119.404,385.738 117.5,385.5C 77.9266,349.442 45.76,307.775 21,260.5C 10.0873,237.494 2.92066,213.494 -0.5,188.5C -0.5,176.5 -0.5,164.5 -0.5,152.5C 0.631265,145.384 2.29793,138.384 4.5,131.5C 5.92381,129.485 6.59047,127.152 6.5,124.5C 9.29606,113.247 13.9627,102.914 20.5,93.5C 21.9063,93.0269 22.573,92.0269 22.5,90.5C 23.3403,88.1475 24.6736,86.1475 26.5,84.5C 27.9063,84.0269 28.573,83.0269 28.5,81.5C 29.9063,81.0269 30.573,80.0269 30.5,78.5C 33.1231,74.2092 36.4564,70.5425 40.5,67.5C 42.8333,65.8333 44.8333,63.8333 46.5,61.5C 46.8333,60.5 47.5,59.8333 48.5,59.5C 51.4274,58.2427 53.7607,56.2427 55.5,53.5C 56.5794,51.457 58.246,50.1237 60.5,49.5C 62.0269,49.573 63.0269,48.9063 63.5,47.5C 65.1475,45.6736 67.1475,44.3403 69.5,43.5C 71.0269,43.573 72.0269,42.9063 72.5,41.5C 73.5137,40.3263 74.847,39.6596 76.5,39.5C 78.0269,39.573 79.0269,38.9063 79.5,37.5C 87.291,33.0096 95.6243,29.6762 104.5,27.5C 107.152,27.5905 109.485,26.9238 111.5,25.5C 156.979,14.2479 198.979,22.0813 237.5,49C 244.017,54.0241 250.35,59.1908 256.5,64.5 Z"/></g>
<g><path style="opacity:0.961" fill="#8e5173" d="M 328.5,24.5 C 326.485,25.9238 324.152,26.5905 321.5,26.5C 323.515,25.0762 325.848,24.4095 328.5,24.5 Z"/></g>
<g><path style="opacity:0.937" fill="#8d5173" d="M 111.5,25.5 C 109.485,26.9238 107.152,27.5905 104.5,27.5C 106.515,26.0762 108.848,25.4095 111.5,25.5 Z"/></g>
<g><path style="opacity:0.949" fill="#884f6f" d="M 316.5,27.5 C 314.383,29.6545 311.716,30.6545 308.5,30.5C 310.936,29.129 313.603,28.129 316.5,27.5 Z"/></g>
<g><path style="opacity:0.816" fill="#70415b" d="M 79.5,37.5 C 79.0269,38.9063 78.0269,39.573 76.5,39.5C 76.9731,38.0937 77.9731,37.427 79.5,37.5 Z"/></g>
<g><path style="opacity:0.784" fill="#6c3f59" d="M 72.5,41.5 C 72.0269,42.9063 71.0269,43.573 69.5,43.5C 69.9731,42.0937 70.9731,41.427 72.5,41.5 Z"/></g>
<g><path style="opacity:0.761" fill="#6b3e57" d="M 63.5,47.5 C 63.0269,48.9063 62.0269,49.573 60.5,49.5C 60.9731,48.0937 61.9731,47.427 63.5,47.5 Z"/></g>
<g><path style="opacity:0.773" fill="#6e4059" d="M 275.5,48.5 C 275.027,49.9063 274.027,50.573 272.5,50.5C 272.973,49.0937 273.973,48.427 275.5,48.5 Z"/></g>
<g><path style="opacity:0.969" fill="#935578" d="M 271.5,51.5 C 270.415,53.5869 268.749,54.9202 266.5,55.5C 267.585,53.4131 269.251,52.0798 271.5,51.5 Z"/></g>
<g><path style="opacity:0.859" fill="#864d6d" d="M 55.5,53.5 C 53.7607,56.2427 51.4274,58.2427 48.5,59.5C 50.2393,56.7573 52.5726,54.7573 55.5,53.5 Z"/></g>
<g><path style="opacity:0.969" fill="#98587c" d="M 266.5,55.5 C 263.769,59.2343 260.436,62.2343 256.5,64.5C 259.231,60.7657 262.564,57.7657 266.5,55.5 Z"/></g>
<g><path style="opacity:0.639" fill="#513143" d="M 467.5,63.5 C 469.262,64.2623 470.262,65.5956 470.5,67.5C 468.738,66.7377 467.738,65.4044 467.5,63.5 Z"/></g>
<g><path style="opacity:0.604" fill="#563347" d="M 46.5,61.5 C 44.8333,63.8333 42.8333,65.8333 40.5,67.5C 41.5,64.5 43.5,62.5 46.5,61.5 Z"/></g>
<g><path style="opacity:0.675" fill="#553346" d="M 30.5,78.5 C 30.573,80.0269 29.9063,81.0269 28.5,81.5C 28.427,79.9731 29.0937,78.9731 30.5,78.5 Z"/></g>
<g><path style="opacity:0.439" fill="#523043" d="M 480.5,78.5 C 481.906,78.9731 482.573,79.9731 482.5,81.5C 481.094,81.0269 480.427,80.0269 480.5,78.5 Z"/></g>
<g><path style="opacity:0.592" fill="#6e405a" d="M 28.5,81.5 C 28.573,83.0269 27.9063,84.0269 26.5,84.5C 26.427,82.9731 27.0937,81.9731 28.5,81.5 Z"/></g>
<g><path style="opacity:0.573" fill="#6a3e57" d="M 482.5,81.5 C 483.906,81.9731 484.573,82.9731 484.5,84.5C 483.094,84.0269 482.427,83.0269 482.5,81.5 Z"/></g>
<g><path style="opacity:0.537" fill="#6b3e57" d="M 22.5,90.5 C 22.573,92.0269 21.9063,93.0269 20.5,93.5C 20.427,91.9731 21.0937,90.9731 22.5,90.5 Z"/></g>
<g><path style="opacity:0.514" fill="#683d55" d="M 488.5,90.5 C 489.906,90.9731 490.573,91.9731 490.5,93.5C 489.094,93.0269 488.427,92.0269 488.5,90.5 Z"/></g>
<g><path style="opacity:0.914" fill="#7c4865" d="M 6.5,124.5 C 6.59047,127.152 5.92381,129.485 4.5,131.5C 4.40953,128.848 5.07619,126.515 6.5,124.5 Z"/></g>
<g><path style="opacity:0.906" fill="#794663" d="M 504.5,124.5 C 505.924,126.515 506.59,128.848 506.5,131.5C 505.076,129.485 504.41,127.152 504.5,124.5 Z"/></g>
<g><path style="opacity:0.663" fill="#523144" d="M 117.5,385.5 C 119.404,385.738 120.738,386.738 121.5,388.5C 119.596,388.262 118.262,387.262 117.5,385.5 Z"/></g>
<g><path style="opacity:0.663" fill="#593549" d="M 130.5,397.5 C 132.027,397.427 133.027,398.094 133.5,399.5C 131.973,399.573 130.973,398.906 130.5,397.5 Z"/></g>
<g><path style="opacity:0.749" fill="#643b52" d="M 152.5,416.5 C 154.027,416.427 155.027,417.094 155.5,418.5C 153.973,418.573 152.973,417.906 152.5,416.5 Z"/></g>
<g><path style="opacity:0.733" fill="#5e384d" d="M 158.5,421.5 C 160.027,421.427 161.027,422.094 161.5,423.5C 159.973,423.573 158.973,422.906 158.5,421.5 Z"/></g>
<g><path style="opacity:0.784" fill="#683d55" d="M 163.5,425.5 C 165.027,425.427 166.027,426.094 166.5,427.5C 164.973,427.573 163.973,426.906 163.5,425.5 Z"/></g>
<g><path style="opacity:0.78" fill="#673d54" d="M 168.5,429.5 C 170.027,429.427 171.027,430.094 171.5,431.5C 169.973,431.573 168.973,430.906 168.5,429.5 Z"/></g>
<g><path style="opacity:0.769" fill="#623a51" d="M 173.5,433.5 C 175.027,433.427 176.027,434.094 176.5,435.5C 174.973,435.573 173.973,434.906 173.5,433.5 Z"/></g>
<g><path style="opacity:0.714" fill="#5a364a" d="M 182.5,440.5 C 184.027,440.427 185.027,441.094 185.5,442.5C 183.973,442.573 182.973,441.906 182.5,440.5 Z"/></g>
<g><path style="opacity:0.898" fill="#71425c" d="M 185.5,442.5 C 187.404,442.738 188.738,443.738 189.5,445.5C 187.596,445.262 186.262,444.262 185.5,442.5 Z"/></g>
<g><path style="opacity:0.894" fill="#70425c" d="M 189.5,445.5 C 191.404,445.738 192.738,446.738 193.5,448.5C 191.596,448.262 190.262,447.262 189.5,445.5 Z"/></g>
<g><path style="opacity:0.875" fill="#6c3f58" d="M 193.5,448.5 C 195.404,448.738 196.738,449.738 197.5,451.5C 195.596,451.262 194.262,450.262 193.5,448.5 Z"/></g>
<g><path style="opacity:0.569" fill="#693e56" d="M 197.5,451.5 C 199.027,451.427 200.027,452.094 200.5,453.5C 198.973,453.573 197.973,452.906 197.5,451.5 Z"/></g>
<g><path style="opacity:0.569" fill="#6b3f58" d="M 211.5,461.5 C 213.027,461.427 214.027,462.094 214.5,463.5C 212.973,463.573 211.973,462.906 211.5,461.5 Z"/></g>
<g><path style="opacity:0.4" fill="#523043" d="M 224.5,470.5 C 226.027,470.427 227.027,471.094 227.5,472.5C 225.973,472.573 224.973,471.906 224.5,470.5 Z"/></g>
<g><path style="opacity:0.435" fill="#573347" d="M 227.5,472.5 C 229.027,472.427 230.027,473.094 230.5,474.5C 228.973,474.573 227.973,473.906 227.5,472.5 Z"/></g>
<g><path style="opacity:0.435" fill="#5b354a" d="M 230.5,474.5 C 232.027,474.427 233.027,475.094 233.5,476.5C 231.973,476.573 230.973,475.906 230.5,474.5 Z"/></g>
<g><path style="opacity:0.369" fill="#4f2f41" d="M 233.5,476.5 C 235.027,476.427 236.027,477.094 236.5,478.5C 234.973,478.573 233.973,477.906 233.5,476.5 Z"/></g>
<g><path style="opacity:0.576" fill="#70425c" d="M 241.5,481.5 C 243.027,481.427 244.027,482.094 244.5,483.5C 242.973,483.573 241.973,482.906 241.5,481.5 Z"/></g>
<g><path style="opacity:0.435" fill="#5b354a" d="M 244.5,483.5 C 246.027,483.427 247.027,484.094 247.5,485.5C 245.973,485.573 244.973,484.906 244.5,483.5 Z"/></g>
<g><path style="opacity:0.353" fill="#442938" d="M 252.5,488.5 C 254.117,489.038 255.784,489.371 257.5,489.5C 255.545,490.93 253.879,490.597 252.5,488.5 Z"/></g>
</svg>
